<svg version="1.2" xmlns="http://www.w3.org/2000/svg" viewBox="0 0 256 256" width="256" height="256">
	<title>icon-256x2256</title>
	<style>
		tspan { white-space:pre } 
		.s0 { fill: #ffffff;stroke: #000000;stroke-miterlimit:100 } 
		.s1 { fill: #6f5a32 } 
		.s2 { fill: #8e02c0;stroke: #000000;stroke-miterlimit:100;stroke-width: 1.5 } 
		.s3 { fill: #000000 } 
		.s4 { fill: #ff0000 } 
		.s5 { fill: #0000ff } 
		.s6 { fill: #808080;stroke: #000000;stroke-miterlimit:100 } 
		.s7 { fill: #999999;stroke: #000000;stroke-miterlimit:100;stroke-width: 3 } 
		.s8 { fill: #ff9900;stroke: #000000;stroke-miterlimit:100;stroke-width: 3 } 
		.t9 { font-size: 44px;fill: #ff9900;font-weight: 400;font-family: "DihjautiS-Regular", "Dihjauti S" } 
		.s10 { fill: #ffffff } 
		.s11 { fill: #068706 } 
		.t12 { font-size: 40px;fill: #000000;font-weight: 700;font-family: "Arial-BoldMT", "Arial" } 
	</style>
	<g id="Logo">
		<g id="football">
			<path id="football white" class="s0" d="m197.7 75.5c0 0-29.7-8.6-47.3 9.1-16.4 17-10.6 47-10.6 47 0 0 35.2 7.9 49.8-10.1 16-17.6 8.1-46 8.1-46z"/>
			<path id="football" fill-rule="evenodd" class="s1" d="m198 104.3c-1.1 4.2-2.7 8.3-4.9 12-3.9 6.3-9.7 11.6-17.9 14.6q-2.3 0.9-4.9 1.5l-29.7-29.9c1-4.1 2.6-8.2 4.9-11.9 3.8-6.3 9.6-11.6 17.9-14.7q2.3-0.8 4.8-1.5zm-22.4-31c5.7-0.6 12.2-0.3 19.5 1 1.6 0.2 2.9 1.5 3.2 3.1 1.2 5.6 1.7 12.5 1 19.7zm-32 59.3c-1.6-0.2-2.9-1.5-3.2-3.1-1.2-5.6-1.8-12.5-1-19.7l23.7 23.8c-5.7 0.6-12.2 0.3-19.5-1zm26.3-37.8l8 8.1c0.8 0.7 2.1 0.7 2.9 0 0.7-0.8 0.7-2.1 0-2.9l-8-8c-0.8-0.8-2.1-0.8-2.9 0-0.7 0.8-0.7 2 0 2.8zm-6 6.1l8 8c0.8 0.8 2.1 0.8 2.9 0 0.7-0.8 0.7-2.1 0-2.8l-8-8.1c-0.8-0.8-2.1-0.8-2.9 0-0.7 0.8-0.7 2.1 0 2.9zm-6 6l8 8c0.8 0.8 2.1 0.8 2.9 0 0.7-0.7 0.7-2 0-2.8l-8.1-8.1c-0.7-0.7-2-0.7-2.8 0-0.8 0.8-0.8 2.1 0 2.9z"/>
		</g>
		<path id="shirt" fill-rule="evenodd" class="s2" d="m50.8 71.3c1-0.5 2.1 0 3 1 4.2 5.3 10.6 7.6 15.8 5.2 5.3-2.4 7.8-8.8 6.6-15.4-0.3-1.3 0.1-2.5 1.1-3l1.5-0.7c2.8-1.2 6-1.2 9.1 0l22.8 9.1c1.2 0.4 2.3 1.4 3 2.7 0.7 1.3 0.9 2.7 0.7 4.1l-2.4 12.9c-0.5 2.6-2.8 4-5.2 3l-9.3-3.7 17.5 38.4c2.5 5.4 1 11.4-3.3 13.4l-23.5 10.7c-4.3 2-9.9-0.8-12.3-6.2l-17.6-38.3-3.3 9.4c-0.8 2.5-3.4 3.3-5.7 2l-11.3-6.7c-1.2-0.7-2.1-1.8-2.6-3.2-0.5-1.3-0.6-2.8-0.2-4l8.1-23.2c1.1-3.1 3.2-5.6 6-6.8z"/>
		<g id="game">
			<path id="fill arrows" class="s3" d="m113 77h24v25h-24z"/>
			<path id="fill button A" class="s4" d="m125 114h17v20h-17z"/>
			<path id="fill button B" class="s5" d="m113 110.6h12v12.4h-12z"/>
			<path id="game" fill-rule="evenodd" class="s6" d="m146.2 120.2c-0.4 12.1-10.3 21.5-22.3 21-12-0.4-21.4-10.6-21.1-22.7l0.8-29.1c0.4-12.1 10.3-21.5 22.3-21.1 12 0.5 21.4 10.6 21.1 22.7zm-13.1 1.8c-0.9-0.9-2-1.4-3.2-1.5-1.2 0-2.4 0.4-3.2 1.2-0.9 0.8-1.4 2-1.4 3.2-0.1 1.2 0.4 2.4 1.2 3.3 0.8 0.9 2 1.4 3.1 1.4 1.2 0.1 2.4-0.4 3.3-1.2 0.9-0.8 1.4-2 1.4-3.2 0-1.2-0.4-2.3-1.2-3.2zm-17.1-8c-0.8 0.8-1.4 2-1.4 3.2 0 1.2 0.4 2.4 1.2 3.3 0.9 0.9 2 1.4 3.2 1.4 1.2 0.1 2.4-0.4 3.2-1.2 0.9-0.8 1.4-2 1.5-3.2 0-1.2-0.5-2.3-1.3-3.2-0.8-0.9-1.9-1.4-3.1-1.5-1.2 0-2.4 0.4-3.3 1.2zm12.1-26.4l0.1-3.6c0-1.6-1.1-2.8-2.6-2.9-1.5 0-2.8 1.1-2.8 2.7l-0.1 3.6-3.6-0.1c-1.5-0.1-2.8 1.1-2.8 2.6-0.1 1.5 1.1 2.8 2.6 2.8l3.6 0.2-0.1 3.6c0 1.5 1.2 2.8 2.7 2.8 1.5 0.1 2.7-1.1 2.7-2.6l0.1-3.6 3.7 0.1c1.5 0.1 2.7-1.1 2.8-2.6 0-1.5-1.2-2.8-2.7-2.9z"/>
		</g>
		<g id="cart">
			<path id="cart" fill-rule="evenodd" class="s7" d="m51 125.6c0-3.4 2.5-6.2 5.5-6.2h10.5c5 0 9.5 3.3 11.6 8.3h94.5c6.1 0 10.5 6.5 8.9 13l-9.4 39.5c-2 8.1-8.5 13.8-16 13.8h-66.3l1.2 7.4c0.5 2.9 2.8 5 5.4 5h66.3c3.1 0 5.5 2.8 5.5 6.2 0 3.5-2.4 6.3-5.5 6.3h-66.3c-7.9 0-14.8-6.4-16.2-15.2l-11.9-70.2c-0.2-1-0.9-1.7-1.8-1.7h-10.5c-3 0-5.5-2.7-5.5-6.2zm29.4 114c0-3.3 1.2-6.5 3.3-8.8 2-2.4 4.8-3.7 7.8-3.7 2.9 0 5.7 1.3 7.8 3.7 2 2.3 3.2 5.5 3.2 8.8 0 3.3-1.2 6.4-3.2 8.8-2.1 2.3-4.9 3.6-7.8 3.6-3 0-5.8-1.3-7.8-3.6-2.1-2.4-3.3-5.5-3.3-8.8zm77.3-12.5c2.9 0 5.7 1.3 7.8 3.7 2.1 2.3 3.2 5.5 3.2 8.8 0 3.3-1.1 6.4-3.2 8.8-2.1 2.3-4.9 3.6-7.8 3.6-2.9 0-5.7-1.3-7.8-3.6-2.1-2.4-3.2-5.5-3.2-8.8 0-3.3 1.1-6.5 3.2-8.8 2.1-2.4 4.9-3.7 7.8-3.7z"/>
			<path id="wheels" fill-rule="evenodd" class="s8" d="m80.4 239.6c0-3.3 1.2-6.5 3.3-8.8 2-2.4 4.8-3.7 7.8-3.7 2.9 0 5.7 1.3 7.8 3.7 2 2.3 3.2 5.5 3.2 8.8 0 3.3-1.2 6.4-3.2 8.8-2.1 2.3-4.9 3.6-7.8 3.6-3 0-5.8-1.3-7.8-3.6-2.1-2.4-3.3-5.5-3.3-8.8zm77.3-12.5c2.9 0 5.7 1.3 7.8 3.7 2.1 2.3 3.2 5.5 3.2 8.8 0 3.3-1.1 6.4-3.2 8.8-2.1 2.3-4.9 3.6-7.8 3.6-2.9 0-5.7-1.3-7.8-3.6-2.1-2.4-3.2-5.5-3.2-8.8 0-3.3 1.1-6.5 3.2-8.8 2.1-2.4 4.9-3.7 7.8-3.7z"/>
		</g>
		<text id=")" style="transform: matrix(0,1,-1,0,111,182)" >
			<tspan x="-9" y="0" class="t9">)
</tspan>
		</text>
		<g id="money wave">
			<path id="white" class="s10" d="m100.6 142.9l44.2-3.7 9.2 0.6-1.1 28.8c0 0-36.2-0.7-41.2 1.5-4.8 2.1-13.2 0-13.2 0z"/>
			<path id="money wave" fill-rule="evenodd" class="s11" d="m101.7 136.4c8.7 2.7 17.6 1.4 26.5 0.1 9.8-1.4 19.5-2.8 28.9 1 1.8 0.7 2.8 2.4 2.7 4.1l-2.1 29.3c-0.2 2.2-3.1 3.5-5.6 2.7-8.7-2.7-17.6-1.4-26.5-0.1-9.8 1.4-19.5 2.8-28.9-1-1.8-0.7-2.8-2.4-2.7-4.1l2.1-29.3c0.2-2.2 3.1-3.5 5.6-2.7zm-0.2 25.9l-0.4 6 7.1 0.5c0.2-3.3-2.8-6.2-6.7-6.5zm8.4-17.6l-7-0.6-0.5 6.1c3.9 0.3 7.3-2.2 7.5-5.5zm41.1 21.2l0.4-6.1c-3.9-0.3-7.3 2.2-7.5 5.6zm1.7-24.2l-7-0.6c-0.3 3.4 2.7 6.3 6.6 6.6zm-15.2 14.1c0.4-5.8-4-10.9-9.8-11.3-5.9-0.5-11 3.9-11.4 9.8-0.4 5.8 4 10.9 9.8 11.3 5.9 0.4 11-3.9 11.4-9.8zm-11.9-7.3l1.8 0.1c1.2 0.1 2.1 1 2 2.1l-0.4 6.4h0.4c1.2 0.1 2.2 1 2.1 2.1-0.1 1-1.1 1.8-2.4 1.7l-5.2-0.4c-1.3-0.1-2.2-1-2.1-2 0.1-1.1 1.1-1.8 2.3-1.8l0.5 0.1 0.3-4.6c-1-0.3-1.7-1.1-1.6-2 0-1 1.1-1.8 2.3-1.7z"/>
		</g>
	</g>
	<text id="Product Ads" style="transform: matrix(1,0,0,1,127,47)" >
		<tspan x="-118.2" y="0" class="t12">P</tspan><tspan  y="0" class="t12">r</tspan><tspan  y="0" class="t12">o</tspan><tspan  y="0" class="t12">d</tspan><tspan  y="0" class="t12">u</tspan><tspan  y="0" class="t12">c</tspan><tspan  y="0" class="t12">t</tspan><tspan  y="0" class="t12"> </tspan><tspan  y="0" class="t12">A</tspan><tspan  y="0" class="t12">d</tspan><tspan  y="0" class="t12">s
</tspan>
	</text>
</svg>